<?xml version="1.0" standalone="no"?><!DOCTYPE svg PUBLIC "-//W3C//DTD SVG 1.1//EN" "http://www.w3.org/Graphics/SVG/1.1/DTD/svg11.dtd"><svg t="1609851900231" class="icon" viewBox="0 0 1024 1024" version="1.1" xmlns="http://www.w3.org/2000/svg" p-id="1759" xmlns:xlink="http://www.w3.org/1999/xlink" width="200" height="200"><defs><style type="text/css"></style></defs><path d="M512 21.333333a490.666667 490.666667 0 1 0 490.666667 490.666667A490.666667 490.666667 0 0 0 512 21.333333z m0 896a405.333333 405.333333 0 1 1 405.333333-405.333333 405.333333 405.333333 0 0 1-405.333333 405.333333z" fill="#007F64" p-id="1760"></path><path d="M677.76 256h-42.666667a21.333333 21.333333 0 0 0-21.333333 21.333333v160.64a21.333333 21.333333 0 0 1-21.333333 21.333334h-160.853334a21.333333 21.333333 0 0 1-21.333333-21.333334V277.333333a21.333333 21.333333 0 0 0-21.333333-21.333333h-42.666667a21.333333 21.333333 0 0 0-21.333333 21.333333v449.28a21.333333 21.333333 0 0 0 21.333333 21.333334h42.666667a21.333333 21.333333 0 0 0 21.333333-21.333334v-160.853333a21.333333 21.333333 0 0 1 21.333333-21.333333h160.853334a21.333333 21.333333 0 0 1 21.333333 21.333333v160.853333a21.333333 21.333333 0 0 0 21.333333 21.333334h42.666667a21.333333 21.333333 0 0 0 21.333333-21.333334V277.333333a21.333333 21.333333 0 0 0-21.333333-21.333333z" fill="#007F64" p-id="1761"></path></svg>