<?xml version="1.0" standalone="no"?><!DOCTYPE svg PUBLIC "-//W3C//DTD SVG 1.1//EN" "http://www.w3.org/Graphics/SVG/1.1/DTD/svg11.dtd"><svg t="1609852033710" class="icon" viewBox="0 0 1024 1024" version="1.1" xmlns="http://www.w3.org/2000/svg" p-id="2480" xmlns:xlink="http://www.w3.org/1999/xlink" width="200" height="200"><defs><style type="text/css"></style></defs><path d="M346.196164 853.286575h-28.054794v17.393973H350.684932V883.726027h-48.113973v-70.136986H350.684932v12.484384h-31.842192v15.009315h28.054794zM416.753973 883.726027h-16.131507l-25.529863-44.466849V883.726027h-16.692603v-70.136986h16.271781l25.529863 44.466849V813.589041h16.131507zM471.320548 853.286575h-28.054795v17.393973h32.263014V883.726027h-47.833425v-70.136986H476.931507v12.484384h-32.964384v15.009315h28.054795zM499.796164 856.372603V883.726027h-16.27178v-70.136986h26.792328a30.158904 30.158904 0 0 1 19.217535 5.610959 18.516164 18.516164 0 0 1 7.153972 15.289863 15.289863 15.289863 0 0 1-2.805479 9.258082 19.918904 19.918904 0 0 1-8.416439 6.312329 15.710685 15.710685 0 0 1 9.258083 6.031781 18.796712 18.796712 0 0 1 2.805479 10.520548v4.348493a28.054795 28.054795 0 0 0 0.841644 6.172055 8.13589 8.13589 0 0 0 2.805479 5.049863V883.726027h-16.692602a7.995616 7.995616 0 0 1-2.524932-5.330411 43.625205 43.625205 0 0 1 0-7.013698v-4.208219a10.24 10.24 0 0 0-2.665205-7.574795 10.380274 10.380274 0 0 0-7.715069-2.665205z m0-12.484384h10.660822a11.081644 11.081644 0 0 0 7.434521-2.244383 7.995616 7.995616 0 0 0 2.524931-6.452603 9.258082 9.258082 0 0 0-2.665205-6.873425 10.24 10.24 0 0 0-7.574795-2.665205h-10.660822zM603.178082 873.486027a29.878356 29.878356 0 0 1-10.380274 7.434521 39.55726 39.55726 0 0 1-16.97315 3.226301 28.054795 28.054795 0 0 1-21.041096-7.995616A28.054795 28.054795 0 0 1 547.068493 855.671233v-14.027397a28.054795 28.054795 0 0 1 7.855343-20.620274 27.213151 27.213151 0 0 1 20.199452-8.696987 28.054795 28.054795 0 0 1 20.199452 6.312329 25.109041 25.109041 0 0 1 7.855342 16.973151h-15.289863a14.027397 14.027397 0 0 0-3.506849-8.276165 11.362192 11.362192 0 0 0-8.416438-2.805479 10.94137 10.94137 0 0 0-9.117809 4.488767 18.37589 18.37589 0 0 0-3.506849 11.64274v14.027397a18.796712 18.796712 0 0 0 3.366575 11.783014 11.362192 11.362192 0 0 0 9.53863 4.488767 26.652055 26.652055 0 0 0 7.013699-0.70137 11.221918 11.221918 0 0 0 4.067945-1.963836v-11.081643h-10.94137v-9.959452H603.178082zM639.088219 843.888219l14.027397-30.439452h17.534247l-23.706301 45.308493V883.726027H631.232877v-25.950685L607.807123 813.589041h17.534247zM193.718356 976.447123A26.231233 26.231233 0 0 1 186.564384 995.945205a28.054795 28.054795 0 0 1-19.638357 6.452603 28.054795 28.054795 0 0 1-21.041095-7.995616 28.054795 28.054795 0 0 1-8.135891-20.620274v-14.027397a28.054795 28.054795 0 0 1 7.855343-20.620274 27.072877 27.072877 0 0 1 20.199452-7.995617 28.054795 28.054795 0 0 1 20.199452 6.733151 28.054795 28.054795 0 0 1 7.855342 18.936986h-15.850959a17.113425 17.113425 0 0 0-3.086027-10.099726 11.362192 11.362192 0 0 0-9.258082-3.366575 10.099726 10.099726 0 0 0-8.696987 4.488767 19.638356 19.638356 0 0 0-3.086027 11.64274v14.027397a18.656438 18.656438 0 0 0 3.506849 11.64274 11.362192 11.362192 0 0 0 9.53863 4.488767 9.959452 9.959452 0 0 0 8.276165-3.086028 17.674521 17.674521 0 0 0 2.805479-9.959452zM260.208219 972.379178a29.176986 29.176986 0 0 1-7.715068 21.18137 28.054795 28.054795 0 0 1-21.321644 8.416438 28.054795 28.054795 0 0 1-29.738082-29.597808v-12.484383a29.036712 29.036712 0 0 1 8.276164-21.18137 31.561644 31.561644 0 0 1 42.783562 0 29.036712 29.036712 0 0 1 8.276164 21.18137z m-16.131507-12.624657a20.199452 20.199452 0 0 0-3.506849-12.203836 12.764932 12.764932 0 0 0-19.918904 0 20.339726 20.339726 0 0 0-3.506849 12.34411v12.624657a20.48 20.48 0 0 0 3.506849 12.34411 11.783014 11.783014 0 0 0 10.099726 4.769315 11.502466 11.502466 0 0 0 9.819178-4.769315 20.48 20.48 0 0 0 3.506849-12.34411zM327.820274 1000.995068h-16.131507l-25.529863-44.466849v44.466849h-16.552329v-70.136986h16.271781l25.529863 44.46685v-44.186302h16.131507zM375.934247 981.917808a7.013699 7.013699 0 0 0-2.384658-5.751233 31.140822 31.140822 0 0 0-8.696986-4.208219 67.752329 67.752329 0 0 1-19.638356-8.977534 16.131507 16.131507 0 0 1-6.312329-14.027397 16.692603 16.692603 0 0 1 7.574794-14.027398 32.403288 32.403288 0 0 1 19.217535-5.470685 29.31726 29.31726 0 0 1 19.07726 6.031781 18.235616 18.235616 0 0 1 7.153972 15.430137H375.934247a8.83726 8.83726 0 0 0-2.80548-6.73315 11.081644 11.081644 0 0 0-7.855342-2.665206 12.34411 12.34411 0 0 0-7.715069 2.10411 6.592877 6.592877 0 0 0-2.805479 5.330411 5.610959 5.610959 0 0 0 2.805479 4.909589 56.109589 56.109589 0 0 0 10.520548 4.629041 48.815342 48.815342 0 0 1 17.955069 8.696986A17.814795 17.814795 0 0 1 392.767123 981.917808a16.832877 16.832877 0 0 1-7.153972 14.027397 31.561644 31.561644 0 0 1-18.936987 5.190137 35.349041 35.349041 0 0 1-21.321643-5.190137 19.07726 19.07726 0 0 1-8.416439-17.253698h15.710685a10.380274 10.380274 0 0 0 3.226301 8.696986 15.710685 15.710685 0 0 0 9.819179 2.524932 11.64274 11.64274 0 0 0 7.43452-1.963836 6.452603 6.452603 0 0 0 2.80548-6.031781zM458.134795 931.13863v45.729315a22.724384 22.724384 0 0 1-7.995617 19.07726 36.330959 36.330959 0 0 1-42.082192 0 22.58411 22.58411 0 0 1-7.995616-18.516164v-46.290411h16.271781v45.729315a12.484384 12.484384 0 0 0 3.366575 9.53863 13.185753 13.185753 0 0 0 9.398356 3.086028 12.905205 12.905205 0 0 0 9.258082-3.086028 12.624658 12.624658 0 0 0 3.226302-9.53863v-45.729315zM489.976986 931.13863L504.986301 980.094247l15.850959-48.815343h21.321644v70.136986h-15.289863v-17.67452l1.543014-31.842192-16.832877 49.236164h-10.94137l-16.692603-48.815342 1.543014 31.42137v17.253698h-16.692603v-70.136986zM570.353973 977.008219v23.986849H554.082192v-70.136986h28.054794a29.036712 29.036712 0 0 1 19.77863 6.312329 22.58411 22.58411 0 0 1 0 33.244931 29.036712 29.036712 0 0 1-19.77863 6.312329z m0-12.484383h12.063561a10.660822 10.660822 0 0 0 7.995617-2.945754 10.380274 10.380274 0 0 0 2.805479-7.43452 10.801096 10.801096 0 0 0-2.805479-7.574795 10.380274 10.380274 0 0 0-7.995617-2.945753h-12.063561zM667.283288 943.623014h-18.516165v57.372054H632.635616v-57.372054h-18.235616v-12.484384h52.883288zM691.129863 1000.995068h-16.271781v-70.136986h16.131507zM760.846027 972.379178a29.176986 29.176986 0 0 1-8.13589 21.321644 28.054795 28.054795 0 0 1-21.321644 8.416438A28.054795 28.054795 0 0 1 701.369863 972.379178v-12.484383a29.036712 29.036712 0 0 1 8.276164-21.18137 31.561644 31.561644 0 0 1 42.783562 0 29.036712 29.036712 0 0 1 8.276164 21.18137z m-16.131506-12.624657a20.199452 20.199452 0 0 0-3.50685-12.203836 12.905205 12.905205 0 0 0-20.059178 0 20.339726 20.339726 0 0 0-3.506849 12.34411v12.624657a20.339726 20.339726 0 0 0 3.506849 12.34411 11.783014 11.783014 0 0 0 10.099726 4.769315 11.502466 11.502466 0 0 0 9.959452-4.769315 20.48 20.48 0 0 0 3.50685-12.34411zM828.458082 1000.995068h-16.131507l-25.529863-44.466849v44.466849h-16.552328v-70.136986h16.27178l25.529863 44.46685v-44.186302h16.131507z" fill="#6C747A" p-id="2481"></path><path d="M161.315068 497.972603h84.164384v98.191781h-84.164384zM273.534247 441.863014h84.164383v154.30137h-84.164383zM385.753425 385.753425h84.164383v210.410959h-84.164383zM497.972603 329.643836h84.164383v266.520548h-84.164383zM610.191781 273.534247h84.164383v322.630137h-84.164383z" fill="#A0E8EB" p-id="2482"></path><path d="M722.410959 217.424658h84.164383v378.739726h-84.164383z" fill="#FD7130" p-id="2483"></path><path d="M273.534247 77.150685h-84.164384l-28.054795 168.328767h56.10959l56.109589-168.328767z" fill="#FD7130" p-id="2484"></path><path d="M189.369863 357.69863h28.054795l84.164383-168.328767h-70.136986l-42.082192 168.328767z" fill="#FD7130" p-id="2485"></path><path d="M189.369863 189.369863h70.136986v56.109589h-70.136986z" fill="#FD7130" p-id="2486"></path></svg>