<?xml version="1.0" standalone="no"?><!DOCTYPE svg PUBLIC "-//W3C//DTD SVG 1.1//EN" "http://www.w3.org/Graphics/SVG/1.1/DTD/svg11.dtd"><svg t="1609851827655" class="icon" viewBox="0 0 1024 1024" version="1.1" xmlns="http://www.w3.org/2000/svg" p-id="1617" xmlns:xlink="http://www.w3.org/1999/xlink" width="200" height="200"><defs><style type="text/css"></style></defs><path d="M511.75424 217.6c173.7728 0 314.63424 140.86144 314.63424 314.63424s-140.86144 314.63424-314.63424 314.63424S197.12 706.00704 197.12 532.23424s140.86144-314.63424 314.63424-314.63424z m0 48.39424a266.24 266.24 0 1 0 0 532.48c147.0464 0 266.24-119.1936 266.24-266.24s-119.1936-266.24-266.24-266.24z m-9.64608 209.75616c15.03232 0 27.2384 12.22656 27.2384 27.25888v127.03744a27.2384 27.2384 0 0 1-54.4768 0v-127.03744a27.27936 27.27936 0 0 1 27.2384-27.25888z m-124.47744 72.62208a27.2384 27.2384 0 0 1 27.25888 27.21792v54.45632a27.2384 27.2384 0 0 1-54.4768 0v-54.43584c0-15.0528 12.1856-27.2384 27.21792-27.2384z m248.9344-145.22368c15.0528 0 27.25888 12.22656 27.25888 27.2384v199.68a27.2384 27.2384 0 1 1-54.45632 0v-199.68c0-15.03232 12.14464-27.2384 27.19744-27.2384z m0 0" fill="#71747A" p-id="1618"></path></svg>