<?xml version="1.0" standalone="no"?><!DOCTYPE svg PUBLIC "-//W3C//DTD SVG 1.1//EN" "http://www.w3.org/Graphics/SVG/1.1/DTD/svg11.dtd"><svg t="1611499548399" class="icon" viewBox="0 0 1024 1024" version="1.1" xmlns="http://www.w3.org/2000/svg" p-id="1258" xmlns:xlink="http://www.w3.org/1999/xlink" width="200" height="200"><defs><style type="text/css"></style></defs><path d="M0 0m85.333333 0l853.333334 0q85.333333 0 85.333333 85.333333l0 853.333334q0 85.333333-85.333333 85.333333l-853.333334 0q-85.333333 0-85.333333-85.333333l0-853.333334q0-85.333333 85.333333-85.333333Z" fill="#41CC8B" p-id="1259"></path><path d="M584.074667 256a32 32 0 0 1 22.634666 9.376L715.946667 374.613333A32 32 0 0 1 725.333333 397.258667V736a32 32 0 0 1-32 32H330.666667a32 32 0 0 1-32-32V288a32 32 0 0 1 32-32h253.408zM512 650.666667H384a10.666667 10.666667 0 0 0-10.666667 10.666666v21.333334a10.666667 10.666667 0 0 0 10.666667 10.666666h128a10.666667 10.666667 0 0 0 10.666667-10.666666v-21.333334a10.666667 10.666667 0 0 0-10.666667-10.666666z m128-96H384a10.666667 10.666667 0 0 0-10.666667 10.666666v21.333334a10.666667 10.666667 0 0 0 10.666667 10.666666h256a10.666667 10.666667 0 0 0 10.666667-10.666666v-21.333334a10.666667 10.666667 0 0 0-10.666667-10.666666z m0-96H384a10.666667 10.666667 0 0 0-10.666667 10.666666v21.333334a10.666667 10.666667 0 0 0 10.666667 10.666666h256a10.666667 10.666667 0 0 0 10.666667-10.666666v-21.333334a10.666667 10.666667 0 0 0-10.666667-10.666666z" fill="#FFFFFF" p-id="1260"></path><path d="M585.109333 286.442667l109.781334 109.781333a5.333333 5.333333 0 0 1-3.765334 9.109333H608a32 32 0 0 1-32-32v-83.125333a5.333333 5.333333 0 0 1 9.109333-3.765333z" fill="#A0E5C5" p-id="1261"></path></svg>