<?xml version="1.0" standalone="no"?><!DOCTYPE svg PUBLIC "-//W3C//DTD SVG 1.1//EN" "http://www.w3.org/Graphics/SVG/1.1/DTD/svg11.dtd"><svg t="1609851387690" class="icon" viewBox="0 0 1024 1024" version="1.1" xmlns="http://www.w3.org/2000/svg" p-id="1311" xmlns:xlink="http://www.w3.org/1999/xlink" width="200" height="200"><defs><style type="text/css"></style></defs><path d="M803.49 346.32c-12.8-19.62-39.25-25.17-58.88-11.95l-94.71 62.71-103.66-138.22c-0.43-0.85-0.85-1.28-1.71-1.71-1.28-2.13-2.99-3.84-5.12-5.55-2.56-2.13-5.12-3.84-7.68-5.12-0.43-0.43-1.28-0.85-2.14-0.85-2.56-1.28-5.11-2.13-8.1-2.56-0.85-0.43-1.71-0.85-2.56-0.85-2.13-0.43-4.69-0.43-6.82-0.43-5.55 0-10.67 0.85-15.78 2.99l-213.3 85.32c-11.52 4.69-20.9 14.08-24.74 26.02L215.63 484.1c-7.25 22.61 4.69 46.5 26.87 54.18 4.7 1.28 9.39 2.13 13.65 2.13 17.91 0 34.56-11.09 40.53-29.01l36.27-109.21 124.57-49.91-29.02 172.78-208.61 334.03c-12.37 20.05-6.4 46.5 13.65 58.87 6.83 4.27 14.94 6.4 22.61 6.4 14.08 0 28.15-7.25 36.26-20.05l195.38-312.7 158.7 52.9-122 121.58c-16.64 16.64-16.64 43.94 0 60.58 16.63 16.64 43.94 16.64 60.57 0L755.7 656.03c10.24-10.67 14.51-25.6 11.09-40.1-3.41-14.5-13.65-26.02-27.73-30.71l-221.41-73.8 20.05-121.58 68.26 90.87c13.65 17.92 38.82 22.61 57.6 9.81l127.98-85.32c19.62-12.81 25.17-39.69 11.95-58.88z" fill="#1A1A1A" p-id="1312"></path><path d="M554.77 156.48m-56.84 0a56.84 56.84 0 1 0 113.68 0 56.84 56.84 0 1 0-113.68 0Z" fill="#1A1A1A" p-id="1313"></path></svg>